<svg 
 xmlns="http://www.w3.org/2000/svg"
 xmlns:xlink="http://www.w3.org/1999/xlink"
 width="24px" height="24px">
<path fill-rule="evenodd"  fill="rgb(169, 169, 169)"
 d="M14.000,24.000 L14.000,14.000 L24.000,14.000 L24.000,24.000 L14.000,24.000 ZM22.000,18.000 L16.000,18.000 L16.000,22.000 L22.000,22.000 L22.000,18.000 ZM14.000,-0.000 L24.000,-0.000 L24.000,10.000 L14.000,10.000 L14.000,-0.000 ZM16.000,8.000 L22.000,8.000 L22.000,4.000 L16.000,4.000 L16.000,8.000 ZM-0.000,14.000 L10.000,14.000 L10.000,24.000 L-0.000,24.000 L-0.000,14.000 ZM2.000,22.000 L8.000,22.000 L8.000,18.000 L2.000,18.000 L2.000,22.000 ZM-0.000,-0.000 L10.000,-0.000 L10.000,10.000 L-0.000,10.000 L-0.000,-0.000 ZM2.000,8.000 L8.000,8.000 L8.000,4.000 L2.000,4.000 L2.000,8.000 Z"/>
</svg>