<svg 
 xmlns="http://www.w3.org/2000/svg"
 xmlns:xlink="http://www.w3.org/1999/xlink"
 width="26px" height="25px">
<path fill-rule="evenodd"  fill="rgb(169, 169, 169)"
 d="M13.023,-0.000 C12.309,-0.000 11.594,0.008 10.879,0.027 C7.199,0.125 3.469,0.797 0.000,2.000 L1.000,3.000 C3.938,1.941 7.246,1.332 10.922,1.219 C12.316,1.176 13.731,1.176 15.125,1.219 C18.801,1.332 22.062,1.941 25.000,3.000 L26.000,2.000 C22.531,0.797 18.848,0.125 15.168,0.027 C14.453,0.008 13.738,-0.000 13.023,-0.000 ZM9.949,2.945 C7.543,2.918 4.270,3.059 2.000,4.000 C2.418,4.813 4.004,5.742 5.000,6.000 C5.055,4.402 7.883,4.000 10.000,4.000 L13.000,25.000 L16.000,4.000 C18.113,4.000 20.941,4.402 21.000,6.000 C22.000,5.742 23.582,4.813 24.000,4.000 C20.973,2.742 16.168,2.914 14.000,3.000 L13.000,4.000 L12.000,3.000 C11.457,2.980 10.750,2.953 9.949,2.945 Z"/>
</svg>