<?xml version="1.0" encoding="utf-8"?>
<!DOCTYPE svg PUBLIC "-//W3C//DTD SVG 1.1//EN" "http://www.w3.org/Graphics/SVG/1.1/DTD/svg11.dtd">
<svg xmlns="http://www.w3.org/2000/svg" xmlns:xlink="http://www.w3.org/1999/xlink" x="0px" y="0px" width="29px" height="25px" viewBox="0 0 29 25" enable-background="new 0 0 29 25" xml:space="preserve">
	<path fill-rule="evenodd" fill="rgb(180, 180, 180)" d="M25.717,4.313 C25.562,4.375 25.405,4.404 25.251,4.404 C24.589,4.404 24.000,3.869 24.000,3.150 L24.000,2.850 C24.000,2.131 24.589,1.596 25.251,1.596 C25.405,1.596 25.562,1.625 25.717,1.687 L29.000,3.000 L25.717,4.313 ZM20.000,5.000 L18.000,5.000 L18.000,4.000 L8.000,4.000 L8.000,5.000 L6.000,5.000 L6.000,4.000 L2.000,4.000 L2.000,6.000 L0.000,6.000 L0.000,-0.000 L2.000,-0.000 L2.000,2.000 L23.000,2.000 L23.000,4.000 L20.000,4.000 L20.000,5.000 ZM22.000,18.000 L13.000,25.000 L4.000,18.000 L4.000,6.000 L22.000,6.000 L22.000,18.000 ZM20.000,8.000 L6.000,8.000 L6.000,17.022 L13.000,22.466 L20.000,17.022 L20.000,8.000 ZM12.000,18.000 L12.000,15.000 L9.000,15.000 L9.000,13.000 L12.000,13.000 L12.000,10.000 L14.000,10.000 L14.000,13.000 L17.000,13.000 L17.000,15.000 L14.000,15.000 L14.000,18.000 L12.000,18.000 Z"/>
</svg>