<?xml version="1.0" encoding="utf-8"?>
<!DOCTYPE svg PUBLIC "-//W3C//DTD SVG 1.1//EN" "http://www.w3.org/Graphics/SVG/1.1/DTD/svg11.dtd">
<svg xmlns="http://www.w3.org/2000/svg" xmlns:xlink="http://www.w3.org/1999/xlink" x="0px" y="0px" width="61px" height="38px" viewBox="0 0 61 38" enable-background="new 0 0 61 38" xml:space="preserve">
	<path fill-rule="evenodd"  fill="rgb(77, 72, 188)" d="M61.000,22.792 L61.000,32.683 C61.000,35.615 58.633,38.000 55.724,38.000 L5.276,38.000 C2.367,38.000 0.000,35.615 0.000,32.683 L0.000,5.317 C0.000,2.385 2.367,-0.000 5.276,-0.000 L55.724,-0.000 C58.633,-0.000 61.000,2.385 61.000,5.317 L61.000,15.208 C61.000,16.697 60.266,18.081 59.036,18.908 C59.025,18.915 58.989,18.939 58.989,19.000 C58.989,19.061 59.025,19.085 59.037,19.092 C60.266,19.919 61.000,21.303 61.000,22.792 ZM29.000,2.000 L5.276,2.000 C3.470,2.000 2.000,3.488 2.000,5.317 L2.000,32.683 C2.000,34.512 3.470,36.000 5.276,36.000 L14.000,36.000 L14.000,25.000 C14.000,24.448 14.448,24.000 15.000,24.000 C15.552,24.000 16.000,24.448 16.000,25.000 L16.000,36.000 L29.000,36.000 L29.000,2.000 ZM59.000,22.792 C59.000,21.970 58.596,21.207 57.920,20.751 C57.337,20.359 56.989,19.705 56.989,19.000 C56.989,18.295 57.337,17.641 57.919,17.249 C58.596,16.793 59.000,16.030 59.000,15.208 L59.000,5.317 C59.000,3.488 57.530,2.000 55.724,2.000 L31.000,2.000 L31.000,36.000 L55.724,36.000 C57.530,36.000 59.000,34.512 59.000,32.683 L59.000,22.792 ZM45.000,30.000 C44.448,30.000 44.000,29.552 44.000,29.000 L44.000,25.000 C44.000,24.448 44.448,24.000 45.000,24.000 C45.552,24.000 46.000,24.448 46.000,25.000 L46.000,29.000 C46.000,29.552 45.552,30.000 45.000,30.000 ZM45.000,14.000 C44.448,14.000 44.000,13.552 44.000,13.000 L44.000,10.000 C44.000,9.448 44.448,9.000 45.000,9.000 C45.552,9.000 46.000,9.448 46.000,10.000 L46.000,13.000 C46.000,13.552 45.552,14.000 45.000,14.000 ZM15.000,14.000 C14.448,14.000 14.000,13.552 14.000,13.000 L14.000,10.000 C14.000,9.448 14.448,9.000 15.000,9.000 C15.552,9.000 16.000,9.448 16.000,10.000 L16.000,13.000 C16.000,13.552 15.552,14.000 15.000,14.000 Z"/>
</svg>