<?xml version="1.0" encoding="utf-8"?>
<!DOCTYPE svg PUBLIC "-//W3C//DTD SVG 1.1//EN" "http://www.w3.org/Graphics/SVG/1.1/DTD/svg11.dtd">
<svg xmlns="http://www.w3.org/2000/svg" xmlns:xlink="http://www.w3.org/1999/xlink" x="0px" y="0px" width="24px" height="22px" viewBox="0 0 24 22" enable-background="new 0 0 24 24" xml:space="preserve">
	<path fill-rule="evenodd" fill="rgb(180, 180, 180)" d="M23.000,22.000 L22.000,22.000 L2.000,22.000 L-0.000,22.000 L-0.000,20.000 L-0.000,9.000 L2.000,9.000 L2.000,20.000 L22.000,20.000 L22.000,9.000 L24.000,9.000 L24.000,22.000 L23.000,22.000 ZM14.000,10.000 L20.000,10.000 L20.000,12.000 L14.000,12.000 L14.000,10.000 ZM20.000,18.000 L14.000,18.000 L14.000,16.000 L20.000,16.000 L20.000,18.000 ZM14.000,13.000 L20.000,13.000 L20.000,15.000 L14.000,15.000 L14.000,13.000 ZM12.000,10.000 L12.000,12.000 L12.000,18.000 L11.000,18.000 L10.000,18.000 L6.000,18.000 L4.000,18.000 L4.000,16.000 L4.000,12.000 L4.000,10.000 L6.000,10.000 L10.000,10.000 L12.000,10.000 ZM6.000,16.000 L10.000,16.000 L10.000,12.000 L6.000,12.000 L6.000,16.000 ZM22.000,8.000 L2.000,8.000 L1.000,8.000 L-0.000,8.000 L-0.000,2.000 L-0.000,-0.000 L2.000,-0.000 L22.000,-0.000 L23.000,-0.000 L24.000,-0.000 L24.000,8.000 L23.000,8.000 L22.000,8.000 ZM22.000,2.000 L2.000,2.000 L2.000,6.000 L22.000,6.000 L22.000,2.000 ZM5.000,5.000 L3.000,5.000 L3.000,3.000 L5.000,3.000 L5.000,5.000 ZM8.000,5.000 L6.000,5.000 L6.000,3.000 L8.000,3.000 L8.000,5.000 ZM11.000,5.000 L9.000,5.000 L9.000,3.000 L11.000,3.000 L11.000,5.000 Z"/>
</svg>