<svg 
 xmlns="http://www.w3.org/2000/svg"
 xmlns:xlink="http://www.w3.org/1999/xlink"
 width="67px" height="40px">
<path fill-rule="evenodd"  fill="rgb(77, 72, 188)"
 d="M67.000,34.063 C67.000,37.337 64.337,40.000 61.063,40.000 L5.936,40.000 C2.663,40.000 -0.000,37.337 -0.000,34.063 L-0.000,5.936 C-0.000,2.663 2.663,-0.000 5.936,-0.000 L61.063,-0.000 C64.337,-0.000 67.000,2.663 67.000,5.936 L67.000,16.102 C67.000,17.624 66.320,19.047 65.159,20.000 C66.320,20.953 67.000,22.376 67.000,23.897 L67.000,34.063 ZM32.000,3.000 L5.936,3.000 C4.317,3.000 3.000,4.317 3.000,5.936 L3.000,34.063 C3.000,35.682 4.317,37.000 5.936,37.000 L16.000,37.000 L16.000,26.500 C16.000,25.672 16.672,25.000 17.500,25.000 C18.328,25.000 19.000,25.672 19.000,26.500 L19.000,37.000 L32.000,37.000 L32.000,3.000 ZM64.000,23.897 C64.000,23.212 63.659,22.575 63.089,22.195 C62.353,21.705 61.914,20.885 61.914,20.000 C61.914,19.115 62.353,18.295 63.089,17.804 C63.659,17.425 64.000,16.788 64.000,16.102 L64.000,5.936 C64.000,4.317 62.683,3.000 61.063,3.000 L35.000,3.000 L35.000,37.000 L61.063,37.000 C62.683,37.000 64.000,35.682 64.000,34.063 L64.000,23.897 ZM49.500,31.000 C48.672,31.000 48.000,30.328 48.000,29.500 L48.000,26.500 C48.000,25.672 48.672,25.000 49.500,25.000 C50.328,25.000 51.000,25.672 51.000,26.500 L51.000,29.500 C51.000,30.328 50.328,31.000 49.500,31.000 ZM49.500,15.000 C48.672,15.000 48.000,14.328 48.000,13.500 L48.000,10.500 C48.000,9.672 48.672,9.000 49.500,9.000 C50.328,9.000 51.000,9.672 51.000,10.500 L51.000,13.500 C51.000,14.328 50.328,15.000 49.500,15.000 ZM17.500,15.000 C16.672,15.000 16.000,14.328 16.000,13.500 L16.000,10.500 C16.000,9.672 16.672,9.000 17.500,9.000 C18.328,9.000 19.000,9.672 19.000,10.500 L19.000,13.500 C19.000,14.328 18.328,15.000 17.500,15.000 Z"/>
</svg>