<svg xmlns="http://www.w3.org/2000/svg" width="26.88" height="25.594" viewBox="0 0 26.88 25.594">
  <defs>
    <style>
      .cls-1 {
        fill: #343434;
        fill-rule: evenodd;
      }
    </style>
  </defs>
  <path id="Instagram" class="cls-1" d="M1264.44,186.639h-18.88a3.981,3.981,0,0,1-4-3.968V165.007a3.981,3.981,0,0,1,4-3.968h18.88a3.981,3.981,0,0,1,4,3.968v17.728A3.968,3.968,0,0,1,1264.44,186.639Zm2.03-21.76a1.906,1.906,0,0,0-1.96-1.92h-19.02a1.915,1.915,0,0,0-1.97,1.92V182.8a1.915,1.915,0,0,0,1.97,1.92h19.02a1.906,1.906,0,0,0,1.96-1.92v-17.92Zm-4.33,3.328a1.656,1.656,0,0,1-1.63-1.664,1.741,1.741,0,0,1,1.63-1.664,1.617,1.617,0,0,1,1.64,1.664A1.658,1.658,0,0,1,1262.14,168.207ZM1255,180.879a7.042,7.042,0,1,1,6.88-7.04A6.953,6.953,0,0,1,1255,180.879Zm0-11.584a4.545,4.545,0,1,0,4.46,4.544A4.494,4.494,0,0,0,1255,169.3Z" transform="translate(-1241.56 -161.031)"/>
</svg>
