<svg xmlns="http://www.w3.org/2000/svg" width="26.88" height="25.625" viewBox="0 0 26.88 25.625">
  <defs>
    <style>
      .cls-1 {
        fill: #343434;
        fill-rule: evenodd;
      }
    </style>
  </defs>
  <path id="Behance" class="cls-1" d="M1264.44,94.959h-18.88a3.981,3.981,0,0,1-4-3.968V73.327a3.981,3.981,0,0,1,4-3.968h18.88a3.981,3.981,0,0,1,4,3.968V91.055A3.968,3.968,0,0,1,1264.44,94.959Zm2.03-21.76a1.906,1.906,0,0,0-1.96-1.92h-19.02a1.914,1.914,0,0,0-1.97,1.92v17.92a1.914,1.914,0,0,0,1.97,1.92h19.02a1.906,1.906,0,0,0,1.96-1.92V73.2Zm-7.89,11.177a1.7,1.7,0,0,0,1.82,1.853c1.71,0,1.65-1.146,1.65-1.146h1.82c0,3.042-3.53,2.833-3.53,2.833a3.748,3.748,0,0,1-3.97-4.073s0-4.093,3.97-4.093c4.17,0,3.59,4.625,3.59,4.625h-5.35Zm1.8-3.065a1.877,1.877,0,0,0-1.82,1.642h3.39A1.571,1.571,0,0,0,1260.38,81.311Zm-2.26-3.644h4.25V78.98h-4.25V77.668Zm-2.16,6.882c0,3.251-3.27,3.145-3.27,3.145h-5.37V77.04h5.37a2.675,2.675,0,0,1,2.92,2.837,1.826,1.826,0,0,1-1.58,2.027C1256.11,81.9,1255.96,84.549,1255.96,84.549Zm-3.27-5.616h-3.01v2.378h2.82c0.49,0,.92-0.16.92-1.269S1252.69,78.933,1252.69,78.933Zm0,4.02h-3.01V85.8h2.85a1.178,1.178,0,0,0,1.24-1.384C1253.77,82.939,1252.69,82.953,1252.69,82.953Z" transform="translate(-1241.56 -69.344)"/>
</svg>
