<svg xmlns="http://www.w3.org/2000/svg" width="26.88" height="25.625" viewBox="0 0 26.88 25.625">
  <defs>
    <style>
      .cls-1 {
        fill: #343434;
        fill-rule: evenodd;
      }
    </style>
  </defs>
  <path id="facebook" class="cls-1" d="M1264.45,115.2h-18.88a3.981,3.981,0,0,0-4,3.968V136.9a3.968,3.968,0,0,0,4,3.9h18.88a3.981,3.981,0,0,0,4-3.968V119.167A3.981,3.981,0,0,0,1264.45,115.2Zm2.03,21.76a1.906,1.906,0,0,1-1.96,1.92h-4.66v-8.256h3.08l0.46-3.456h-3.54v-2.24c0-1.024.26-1.728,1.77-1.728h1.9V120a22,22,0,0,0-2.82-.128,4.226,4.226,0,0,0-4.59,4.608V127.1h-3.14v3.456h3.14v8.256H1245.5a1.915,1.915,0,0,1-1.97-1.92V119.039a1.915,1.915,0,0,1,1.97-1.92h19.02a1.906,1.906,0,0,1,1.96,1.92v17.92Z" transform="translate(-1241.56 -115.188)"/>
</svg>
